<?xml version="1.0" standalone="no"?>
<!DOCTYPE svg PUBLIC "-//W3C//DTD SVG 20010904//EN"
 "http://www.w3.org/TR/2001/REC-SVG-20010904/DTD/svg10.dtd">
<svg version="1.0" xmlns="http://www.w3.org/2000/svg"
 width="351.134015pt" height="119.920593pt" viewBox="0 0 351.134015 119.920593"
 preserveAspectRatio="xMidYMid meet">
<metadata>
Created by potrace 1.12, written by Peter Selinger 2001-2015
</metadata>
<g transform="translate(-69.000000,330.879470) scale(0.100000,-0.100000)"
fill="#000000" stroke="none">
<path d="M1573 3284 c-20 -20 -24 -31 -19 -57 8 -44 42 -70 80 -63 43 9 60 30
60 72 0 69 -72 97 -121 48z"/>
<path d="M2045 2749 c-4 -6 0 -16 9 -22 11 -8 18 -32 20 -72 3 -33 8 -88 12
-121 4 -42 3 -63 -5 -68 -17 -11 -13 -26 7 -26 28 0 111 57 124 85 13 30 28
33 28 6 0 -11 12 -33 26 -50 22 -26 33 -31 70 -31 34 0 44 4 44 16 0 12 -6 15
-25 10 -16 -4 -34 -1 -46 8 -20 14 -20 14 6 32 77 54 81 60 65 89 -31 58 -123
63 -136 9 -4 -14 -9 -23 -13 -22 -3 2 -23 14 -44 27 l-38 24 35 29 c20 16 36
33 36 37 0 14 -100 51 -136 51 -18 0 -36 -5 -39 -11z m114 -38 c12 -8 12 -12
2 -25 -16 -19 -33 -20 -48 -5 -26 26 12 51 46 30z m172 -91 c23 -13 24 -28 2
-52 -21 -23 -50 -23 -62 1 -8 14 -5 23 10 40 23 24 24 24 50 11z m-165 -24
c36 -25 9 -108 -29 -93 -18 7 -30 77 -15 94 13 16 19 16 44 -1z"/>
<path d="M3643 2730 c-47 -28 -66 -71 -58 -131 5 -33 3 -54 -5 -64 -10 -12 -9
-15 3 -15 9 0 29 -16 44 -35 40 -50 72 -47 37 3 -21 30 -13 48 31 66 36 15 47
36 20 36 -9 0 -30 -7 -47 -16 -37 -19 -48 -11 -55 44 -5 35 -1 44 22 67 22 23
33 27 66 22 43 -6 55 14 20 33 -28 14 -42 13 -78 -10z"/>
<path d="M3064 2726 c-4 -9 -1 -36 5 -61 15 -60 14 -118 -1 -113 -7 3 -25 33
-39 69 -14 35 -32 64 -39 64 -17 0 -28 -48 -31 -136 -2 -72 4 -91 26 -82 10 3
15 20 15 54 0 55 12 63 30 20 6 -16 20 -37 29 -46 17 -14 19 -14 32 1 17 20
24 142 12 198 -9 42 -29 58 -39 32z"/>
<path d="M3366 2714 c-3 -9 -6 -30 -6 -48 0 -40 -16 -60 -57 -74 -30 -10 -32
-9 -38 19 -6 26 -46 69 -66 69 -15 0 -53 -75 -53 -106 0 -36 28 -74 54 -74 9
0 28 13 43 28 20 21 38 29 66 30 l39 2 8 -102 c6 -70 13 -103 22 -106 11 -3
13 17 10 104 l-3 109 35 5 c24 3 36 11 38 24 4 17 0 18 -33 13 l-37 -6 5 37
c3 20 9 49 12 65 6 23 4 27 -13 27 -11 0 -23 -7 -26 -16z m-126 -134 c0 -5 -7
-16 -16 -24 -12 -12 -20 -13 -35 -6 -23 13 -24 28 -2 59 l16 24 19 -23 c10
-12 18 -26 18 -30z"/>
<path d="M2440 2701 c0 -25 20 -38 31 -20 15 23 10 39 -11 39 -13 0 -20 -7
-20 -19z"/>
<path d="M3513 2704 c-7 -18 11 -39 26 -30 17 11 13 46 -4 46 -9 0 -18 -7 -22
-16z"/>
<path d="M3790 2702 c0 -26 11 -34 27 -21 20 17 16 39 -7 39 -13 0 -20 -7 -20
-18z"/>
<path d="M4166 2705 c-3 -9 -6 -25 -6 -35 0 -13 -15 -25 -43 -38 -50 -22 -87
-58 -87 -83 0 -26 66 -79 99 -79 17 0 31 -6 35 -16 3 -9 11 -14 17 -12 7 2 12
46 13 123 1 66 4 126 7 134 6 21 -27 26 -35 6z m-21 -104 c9 -15 -6 -91 -18
-91 -20 0 -47 33 -47 57 0 29 51 56 65 34z"/>
<path d="M2773 2678 c-34 -9 -73 -50 -73 -77 0 -9 7 -27 16 -40 13 -19 22 -22
49 -17 31 6 33 5 39 -31 11 -67 7 -120 -9 -127 -8 -3 -28 6 -44 19 -35 30 -41
31 -41 4 0 -39 115 -63 122 -25 1 6 2 67 3 136 0 69 2 131 5 138 7 20 -29 30
-67 20z m24 -55 c-4 -20 -14 -44 -22 -52 -15 -15 -18 -14 -31 3 -20 28 -18 42
12 65 38 30 48 27 41 -16z"/>
<path d="M3898 2645 c-15 -9 -29 -27 -33 -44 -9 -42 14 -120 41 -137 27 -18
96 -15 102 5 3 10 -3 11 -27 6 -30 -6 -61 6 -61 25 0 5 20 20 44 34 25 15 48
31 51 36 11 18 -24 68 -56 79 -18 6 -32 11 -33 11 -1 -1 -13 -7 -28 -15z m70
-58 c-2 -12 -14 -27 -28 -34 -21 -11 -27 -10 -37 4 -17 23 -16 30 7 53 17 17
24 18 41 10 13 -7 19 -19 17 -33z"/>
<path d="M2436 2621 c-4 -6 -9 -39 -13 -73 -4 -51 -2 -66 11 -77 20 -17 24 -8
29 69 2 30 5 61 8 69 5 17 -26 27 -35 12z"/>
<path d="M2522 2553 c2 -44 7 -78 13 -78 6 0 23 27 40 60 l29 60 6 -61 c7 -68
15 -85 33 -78 9 3 11 22 6 72 -11 107 -28 127 -67 77 -21 -26 -32 -24 -32 7 0
10 -7 18 -15 18 -13 0 -15 -13 -13 -77z"/>
<path d="M3503 2614 c-3 -9 -7 -44 -7 -78 -1 -49 2 -61 16 -64 13 -3 17 8 20
60 2 35 6 69 8 77 7 21 -29 26 -37 5z"/>
<path d="M3786 2621 c-4 -6 -9 -39 -13 -73 -4 -51 -2 -66 11 -77 20 -17 24 -8
29 69 2 30 5 61 8 69 5 17 -26 27 -35 12z"/>
<path d="M1291 2558 c0 -9 15 -26 35 -39 26 -15 34 -27 31 -40 -3 -11 -1 -17
4 -13 19 11 8 35 -26 56 -19 13 -36 30 -39 38 -3 12 -4 12 -5 -2z"/>
<path d="M1418 2501 c9 -22 20 -37 24 -35 7 5 -18 61 -32 69 -5 3 -1 -12 8
-34z"/>
<path d="M1460 2525 c0 -8 4 -15 9 -15 5 0 14 -12 19 -27 6 -16 11 -22 11 -15
1 14 -27 72 -34 72 -3 0 -5 -7 -5 -15z"/>
<path d="M1588 2500 c2 -22 6 -40 8 -40 2 0 4 18 4 40 0 22 -3 40 -8 40 -4 0
-6 -18 -4 -40z"/>
<path d="M1547 2493 c-11 -10 -8 -33 4 -33 5 0 7 5 3 11 -3 6 0 15 7 20 8 5 9
9 3 9 -6 0 -14 -3 -17 -7z"/>
<path d="M745 2279 c-40 -12 -55 -34 -55 -85 0 -34 5 -47 26 -63 61 -48 144
-10 144 67 0 62 -53 99 -115 81z"/>
</g>
</svg>
